<?xml version="1.0" standalone="no"?>
<!DOCTYPE svg PUBLIC "-//W3C//DTD SVG 20010904//EN"
 "http://www.w3.org/TR/2001/REC-SVG-20010904/DTD/svg10.dtd">
<svg version="1.0" xmlns="http://www.w3.org/2000/svg"
 width="512.000000pt" height="512.000000pt" viewBox="0 0 512.000000 512.000000"
 preserveAspectRatio="xMidYMid meet">

<g transform="translate(0.000000,512.000000) scale(0.100000,-0.100000)"
fill="#000000" stroke="none">
<path d="M1340 5062 c-25 -13 -110 -115 -284 -338 l-248 -319 -52 -10 c-142
-30 -227 -128 -232 -269 l-3 -69 -94 -96 c-67 -68 -106 -119 -137 -176 -23
-44 -83 -150 -131 -236 -122 -214 -137 -264 -104 -329 30 -59 118 -76 180 -36
13 9 135 159 271 333 136 175 247 319 248 319 0 1 27 4 59 6 l58 5 407 -364
c224 -201 419 -377 434 -391 l27 -27 21 -473 c12 -260 20 -481 18 -491 -2 -9
-206 -200 -455 -423 l-452 -405 -58 5 c-32 2 -59 5 -59 6 -1 0 -112 144 -248
319 -136 174 -258 324 -271 333 -62 40 -150 23 -180 -36 -34 -65 -18 -113 109
-338 51 -92 111 -198 131 -237 25 -46 70 -103 132 -166 l94 -96 3 -69 c5 -141
90 -239 233 -269 l51 -10 246 -316 c135 -174 257 -324 272 -334 88 -57 195 -4
194 97 -1 52 -21 96 -122 276 -52 92 -112 199 -133 237 -23 41 -70 103 -116
150 l-79 81 6 65 7 65 370 225 c203 123 375 225 382 227 7 2 22 -13 34 -32 33
-52 96 -105 170 -140 l66 -31 455 0 455 0 66 31 c74 35 137 88 170 140 12 19
27 34 34 32 7 -2 179 -104 382 -227 l370 -225 7 -65 6 -65 -79 -81 c-46 -47
-93 -109 -116 -150 -21 -38 -81 -145 -133 -237 -101 -180 -121 -224 -122 -276
-1 -101 106 -154 194 -97 15 10 137 160 272 334 l246 316 53 11 c66 13 137 54
168 97 51 68 61 98 62 189 l0 86 76 79 c48 50 91 107 119 158 23 44 85 154
136 245 107 189 124 238 105 300 -22 74 -115 103 -185 56 -14 -9 -136 -159
-272 -333 -136 -175 -247 -318 -248 -319 0 -1 -18 -4 -38 -7 -37 -6 -39 -4
-445 360 -224 201 -430 386 -457 411 l-48 45 21 486 21 486 28 27 c15 14 212
192 439 395 l412 369 53 -10 53 -9 248 -319 c136 -175 259 -325 272 -334 62
-40 150 -23 180 36 34 65 18 113 -109 338 -51 92 -111 199 -131 237 -23 41
-70 102 -114 148 l-76 79 0 86 c0 75 -4 94 -27 137 -48 91 -126 142 -234 153
l-62 7 -246 316 c-135 174 -257 324 -272 334 -88 57 -195 4 -194 -97 1 -52 21
-96 122 -276 52 -92 112 -198 133 -237 25 -46 71 -104 132 -166 89 -91 94 -99
91 -134 l-3 -38 -344 -209 c-189 -114 -347 -208 -352 -208 -5 0 -9 6 -9 14 0
34 -76 160 -134 222 -72 78 -149 129 -245 161 -59 20 -66 25 -78 60 -17 48
-57 91 -108 114 -35 16 -67 19 -245 19 -178 0 -210 -3 -245 -19 -51 -23 -91
-66 -108 -114 -12 -35 -19 -40 -78 -60 -96 -32 -173 -83 -245 -161 -59 -63
-134 -188 -134 -223 0 -8 -6 -13 -13 -11 -7 2 -158 90 -334 197 l-320 195 -7
65 -6 65 79 81 c46 47 93 109 116 150 21 39 81 145 133 237 101 180 121 224
122 276 1 96 -93 150 -180 104z m90 -77 c22 -26 3 -76 -91 -241 -50 -87 -109
-195 -132 -239 -26 -50 -67 -106 -109 -150 l-66 -70 -29 27 c-15 15 -46 37
-69 50 l-41 23 233 299 c128 164 238 303 246 307 20 13 44 11 58 -6z m2328 -2
c28 -26 472 -600 472 -612 0 -5 -9 -12 -20 -16 -10 -3 -37 -26 -58 -50 l-39
-45 -79 83 c-46 48 -93 109 -113 147 -19 36 -70 128 -114 205 -125 217 -143
265 -115 293 17 17 43 15 66 -5z m-2867 -691 c43 -23 59 -38 82 -82 23 -45 28
-64 24 -102 -6 -64 -51 -135 -102 -162 -57 -30 -147 -29 -198 3 -109 67 -128
220 -39 309 66 66 148 78 233 34z m3583 -9 c46 -33 77 -87 84 -148 7 -66 -35
-146 -94 -181 -66 -39 -120 -42 -187 -11 -92 42 -134 135 -108 235 14 51 75
117 123 131 56 17 137 6 182 -26z m-1687 -103 c17 -10 37 -28 43 -39 11 -21
10 -21 -270 -21 -280 0 -281 0 -270 21 6 11 26 29 43 39 29 18 52 20 227 20
175 0 198 -2 227 -20z m132 -155 c196 -47 357 -216 391 -412 10 -57 5 -220
-29 -1008 -22 -517 -43 -957 -46 -978 -17 -119 -131 -237 -251 -260 l-31 -6
-21 100 c-23 111 -46 151 -109 191 -37 22 -44 23 -263 23 -219 0 -226 -1 -263
-23 -63 -40 -86 -80 -109 -191 l-21 -100 -31 6 c-122 23 -233 141 -250 263 -4
25 -25 466 -47 980 -34 785 -39 946 -29 1003 34 193 196 365 386 411 87 21
634 22 723 1z m1204 -48 c14 -24 33 -49 41 -57 9 -7 16 -16 16 -20 0 -7 -708
-646 -768 -694 l-24 -19 6 209 6 208 343 208 c188 114 345 208 349 208 3 0 18
-19 31 -43z m-2730 -175 l326 -197 7 -209 6 -209 -24 19 c-13 11 -189 167
-390 348 l-367 328 29 25 c16 13 39 39 50 58 12 19 25 35 29 35 4 0 155 -89
334 -198z m-742 83 l29 -15 -231 -298 c-127 -163 -240 -305 -251 -314 -30 -27
-66 -23 -74 7 -9 36 6 72 110 255 51 91 110 197 131 235 22 40 70 103 113 147
l75 78 35 -40 c19 -22 47 -47 63 -55z m4006 3 c33 -35 77 -94 98 -133 21 -38
80 -144 131 -235 104 -183 119 -219 110 -255 -7 -28 -40 -34 -69 -12 -9 6
-119 145 -245 307 l-230 295 47 26 c25 15 55 36 65 48 11 11 22 21 26 21 4 0
34 -28 67 -62z m-2860 -2110 c6 -112 8 -206 4 -210 -10 -11 -733 -448 -742
-448 -4 0 -17 16 -29 35 -11 19 -34 45 -50 58 l-29 25 412 370 c227 204 415
371 418 371 3 1 10 -90 16 -201z m1961 -171 l411 -369 -35 -30 c-19 -17 -42
-43 -51 -59 -10 -16 -20 -29 -24 -29 -7 0 -731 438 -740 448 -8 9 13 413 21
410 4 -2 192 -169 418 -371z m-3560 256 c11 -10 124 -152 251 -315 l231 -298
-29 -15 c-16 -8 -44 -33 -63 -55 l-35 -40 -75 78 c-43 44 -91 107 -113 147
-21 39 -80 144 -131 235 -104 183 -119 219 -110 255 8 30 44 34 74 8z m4752 2
c22 -26 2 -77 -101 -261 -56 -98 -119 -211 -141 -251 -22 -39 -67 -97 -99
-129 l-59 -58 -32 31 c-18 17 -49 39 -70 49 l-36 19 229 295 c126 162 237 301
246 308 22 16 48 15 63 -3z m-2175 -279 c45 -19 60 -46 79 -140 9 -43 16 -80
16 -82 0 -2 -139 -4 -310 -4 -170 0 -310 2 -310 4 0 2 7 39 16 82 30 147 41
153 292 154 136 0 191 -4 217 -14z m-1863 -421 c53 -35 92 -118 85 -180 -12
-107 -112 -194 -212 -183 -129 15 -209 131 -176 256 14 51 75 117 123 131 54
17 135 6 180 -24z m3520 0 c53 -35 92 -118 85 -180 -12 -107 -112 -194 -212
-183 -129 15 -209 131 -176 256 14 51 75 117 123 131 54 17 135 6 180 -24z
m-3331 -403 c35 -37 79 -96 98 -132 19 -36 70 -128 114 -205 128 -223 145
-268 111 -295 -11 -10 -23 -11 -40 -4 -15 5 -115 125 -258 309 l-233 300 46
26 c25 15 55 36 65 48 11 11 22 21 26 21 4 0 36 -30 71 -68z m3015 47 c10 -12
38 -32 62 -46 24 -14 42 -29 40 -34 -2 -5 -106 -142 -233 -304 -230 -297 -256
-323 -290 -295 -33 27 -15 73 112 295 44 77 95 169 114 205 30 58 150 200 169
200 4 0 15 -9 26 -21z"/>
<path d="M755 4231 c-45 -20 -70 -60 -70 -112 0 -42 5 -53 33 -81 28 -28 39
-33 82 -33 43 0 54 5 82 33 28 28 33 39 33 82 0 42 -5 54 -31 81 -33 33 -92
46 -129 30z m75 -86 c26 -32 -13 -81 -47 -59 -35 22 -23 74 17 74 10 0 23 -7
30 -15z"/>
<path d="M4298 4222 c-63 -38 -73 -129 -22 -183 91 -95 246 14 190 133 -30 63
-110 87 -168 50z m92 -77 c26 -32 -13 -81 -47 -59 -35 22 -23 74 17 74 10 0
23 -7 30 -15z"/>
<path d="M2132 3749 c-47 -14 -109 -80 -122 -130 -7 -26 -10 -115 -8 -244 3
-199 3 -202 30 -242 15 -22 44 -51 65 -64 l38 -24 425 0 425 0 38 24 c21 13
50 42 65 64 l27 41 0 226 0 226 -27 41 c-15 22 -44 51 -65 64 l-38 24 -410 2
c-241 1 -424 -2 -443 -8z m870 -107 l33 -32 0 -210 0 -210 -33 -32 -32 -33
-410 0 -410 0 -32 33 -33 32 0 209 0 209 25 27 c14 15 34 31 45 36 11 4 199 7
417 6 l398 -2 32 -33z"/>
<path d="M738 1102 c-63 -38 -73 -129 -22 -183 91 -95 246 14 190 133 -30 63
-110 87 -168 50z m92 -77 c26 -32 -13 -81 -47 -59 -35 22 -23 74 17 74 10 0
23 -7 30 -15z"/>
<path d="M4258 1102 c-63 -38 -73 -129 -22 -183 91 -95 246 14 190 133 -30 63
-110 87 -168 50z m92 -77 c26 -32 -13 -81 -47 -59 -35 22 -23 74 17 74 10 0
23 -7 30 -15z"/>
</g>
</svg>
